<svg xmlns="http://www.w3.org/2000/svg" width="180" height="38" viewBox="0 0 180 38" role="img" aria-label="Playwright">
  <title>Playwright</title>
  <rect width="180" height="38" rx="6" fill="#ffffff"/>
  <g transform="translate(4 4)">
    <g transform="rotate(-12 13 15)">
      <path d="M3 2 C9 6 18 6 26 2 C27 13 24 23 15 29 C7 24 2 15 3 2 Z" fill="#d64b3c" stroke="#8f2f28" stroke-width="1"/>
      <circle cx="10" cy="13" r="2.4" fill="#ffffff"/>
      <circle cx="19" cy="12" r="2.4" fill="#ffffff"/>
      <path d="M9 22 C13 19 18 19 22 21" fill="none" stroke="#ffffff" stroke-width="2" stroke-linecap="round"/>
    </g>
    <g transform="translate(18 0) rotate(10 15 15)">
      <path d="M3 2 C10 6 20 6 28 2 C29 13 25 24 16 30 C7 24 2 15 3 2 Z" fill="#34a853" stroke="#1f7f3a" stroke-width="1"/>
      <ellipse cx="11" cy="13" rx="2.8" ry="2.2" fill="#ffffff"/>
      <ellipse cx="21" cy="13" rx="2.8" ry="2.2" fill="#ffffff"/>
      <path d="M9 21 C14 25 21 25 25 20" fill="none" stroke="#ffffff" stroke-width="2.2" stroke-linecap="round"/>
    </g>
  </g>
  <text x="56" y="25" font-family="Arial, Helvetica, sans-serif" font-size="23" font-weight="700" fill="#111111">Playwright</text>
</svg>
